<svg width="1920" height="1080" viewBox="0 0 1920 1080" fill="none" xmlns="http://www.w3.org/2000/svg">
<g opacity="0.2" clip-path="url(#clip0)">
<path d="M1466.4 1795.2C2416.77 1795.2 3187.2 1167.68 3187.2 393.6C3187.2 -380.482 2416.77 -1008 1466.4 -1008C516.028 -1008 -254.4 -380.482 -254.4 393.6C-254.4 1167.68 516.028 1795.2 1466.4 1795.2Z" fill="url(#paint0_radial)"/>
<path d="M394.2 1815.6C1140.78 1815.6 1746 1322.4 1746 714C1746 105.603 1140.78 -387.6 394.2 -387.6C-352.379 -387.6 -957.6 105.603 -957.6 714C-957.6 1322.4 -352.379 1815.6 394.2 1815.6Z" fill="url(#paint1_radial)"/>
<path d="M1548.6 1885.2C2180.52 1885.2 2692.8 1467.75 2692.8 952.8C2692.8 437.85 2180.52 20.4 1548.6 20.4C916.676 20.4 404.4 437.85 404.4 952.8C404.4 1467.75 916.676 1885.2 1548.6 1885.2Z" fill="url(#paint2_radial)"/>
<path d="M265.8 1215.6C956.046 1215.6 1515.6 760.005 1515.6 198C1515.6 -364.005 956.046 -819.6 265.8 -819.6C-424.445 -819.6 -984 -364.005 -984 198C-984 760.005 -424.445 1215.6 265.8 1215.6Z" fill="url(#paint3_radial)"/>
</g>
<defs>
<radialGradient id="paint0_radial" cx="0" cy="0" r="1" gradientUnits="userSpaceOnUse" gradientTransform="translate(1466.4 393.6) rotate(90) scale(1401.6 1720.8)">
<stop stop-color="#107C10"/>
<stop offset="1" stop-color="#C4C4C4" stop-opacity="0"/>
</radialGradient>
<radialGradient id="paint1_radial" cx="0" cy="0" r="1" gradientUnits="userSpaceOnUse" gradientTransform="translate(394.2 714) rotate(90) scale(1101.6 1351.8)">
<stop stop-color="#0078D4"/>
<stop offset="1" stop-color="#C4C4C4" stop-opacity="0"/>
</radialGradient>
<radialGradient id="paint2_radial" cx="0" cy="0" r="1" gradientUnits="userSpaceOnUse" gradientTransform="translate(1548.6 952.8) rotate(90) scale(932.4 1144.2)">
<stop stop-color="#FFB900" stop-opacity="0.75"/>
<stop offset="1" stop-color="#C4C4C4" stop-opacity="0"/>
</radialGradient>
<radialGradient id="paint3_radial" cx="0" cy="0" r="1" gradientUnits="userSpaceOnUse" gradientTransform="translate(265.8 198) rotate(90) scale(1017.6 1249.8)">
<stop stop-color="#D83B01" stop-opacity="0.75"/>
<stop offset="1" stop-color="#C4C4C4" stop-opacity="0"/>
</radialGradient>
<clipPath id="clip0">
<rect width="1920" height="1080" fill="white"/>
</clipPath>
</defs>
</svg>
